<?xml version="1.0" encoding="UTF-8" standalone="no"?>
<!-- Created with Inkscape (http://www.inkscape.org/) -->
<svg
   xmlns:dc="http://purl.org/dc/elements/1.1/"
   xmlns:cc="http://creativecommons.org/ns#"
   xmlns:rdf="http://www.w3.org/1999/02/22-rdf-syntax-ns#"
   xmlns:svg="http://www.w3.org/2000/svg"
   xmlns="http://www.w3.org/2000/svg"
   xmlns:sodipodi="http://sodipodi.sourceforge.net/DTD/sodipodi-0.dtd"
   xmlns:inkscape="http://www.inkscape.org/namespaces/inkscape"
   width="640"
   height="640"
   id="svg6458"
   sodipodi:version="0.32"
   inkscape:version="0.46"
   version="1.0"
   sodipodi:docname="Flourish02.svg"
   inkscape:output_extension="org.inkscape.output.svg.inkscape">
  <defs
     id="defs6460">
    <inkscape:perspective
       sodipodi:type="inkscape:persp3d"
       inkscape:vp_x="0 : 526.18109 : 1"
       inkscape:vp_y="0 : 1000 : 0"
       inkscape:vp_z="744.09448 : 526.18109 : 1"
       inkscape:persp3d-origin="372.04724 : 350.78739 : 1"
       id="perspective6466" />
  </defs>
  <sodipodi:namedview
     id="base"
     pagecolor="#ffffff"
     bordercolor="#666666"
     borderopacity="1.0"
     inkscape:pageopacity="0.0"
     inkscape:pageshadow="2"
     inkscape:zoom="0.8375"
     inkscape:cx="320"
     inkscape:cy="320"
     inkscape:document-units="px"
     inkscape:current-layer="layer1"
     showgrid="false"
     inkscape:window-width="1366"
     inkscape:window-height="749"
     inkscape:window-x="-4"
     inkscape:window-y="-4" />
  <metadata
     id="metadata6463">
    <rdf:RDF>
      <cc:Work
         rdf:about="">
        <dc:format>image/svg+xml</dc:format>
        <dc:type
           rdf:resource="http://purl.org/dc/dcmitype/StillImage" />
      </cc:Work>
    </rdf:RDF>
  </metadata>
  <g
     inkscape:label="Ebene 1"
     inkscape:groupmode="layer"
     id="layer1"
     transform="translate(-49.737291,-41.757882)">
    <path
       style="fill:#c03"
       d="M 395.26969,61.22556 C 458.53148,110.352 429.18359,170.77494 390.8211,198.54908 C 386.66348,194.90005 384.08578,193.01792 381.081,189.74837 C 408.76808,169.87065 445.55018,131.90955 396.48176,72.45974 C 386.34316,63.17039 361.51157,59.611841 352.70807,78.365369 C 350.74749,82.541492 349.76406,84.1781 348.43885,81.399983 C 339.18411,54.07255 379.12441,52.252001 395.26962,61.225801 L 395.26969,61.22556 z"
       id="path6563" />
    <path
       style="fill:#c03"
       d="M 392.06254,114.83275 C 393.43207,119.06011 396.32443,121.44781 390.08102,119.56785 C 370.38503,113.63785 344.37348,104.45659 335.2099,118.16344 C 313.12354,151.19538 390.30208,206.23 411.85734,221.32767 C 410.07684,222.77306 409.65412,222.98331 407.39558,224.38381 C 370.03773,203.37479 299.64166,150.13747 327.21194,111.51223 C 345.2804,86.200517 390.83646,111.0487 392.06254,114.83232 L 392.06254,114.83275 z"
       id="path6561" />
    <path
       style="fill:#c03"
       d="M 334.58565,223.06108 C 332.29859,225.83422 332.8922,224.83933 330.46207,226.21793 C 309.90271,215.85312 264.20063,195.95555 240.65364,202.40284 C 228.23422,205.51027 204.57815,214.03282 231.09844,199.85656 C 253.53132,185.73282 314.10389,211.65405 334.58545,223.06114 L 334.58565,223.06108 z"
       id="path6559" />
    <path
       style="fill:#c03"
       d="M 509.05861,201.03491 C 524.43271,204.77157 521.06701,205.8283 509.28738,205.44533 C 443.36225,214.75837 427.20786,225.83435 391.84038,252.91297 C 388.64274,251.14886 385.21601,249.55828 382.52384,246.45972 C 412.83897,217.19483 466.42851,199.16443 509.05868,201.03496 L 509.05861,201.03491 z"
       id="path6557" />
    <path
       style="fill:#c03"
       d="M 352.48624,235.20401 C 363.29823,240.95422 398.98429,261.54461 415.55331,274.82602 C 415.09616,275.26697 412.10975,276.90102 411.42421,277.1215 C 391.89255,263.37657 369.09033,250.78872 348.98768,238.43902 C 348.54447,236.29653 351.20921,236.43676 352.48617,235.20408 L 352.48624,235.20401 z"
       id="path6555" />
    <path
       style="fill:#c03"
       d="M 348.66088,289.5901 C 359.47287,295.34068 400.48925,318.37 417.05827,331.65104 C 416.60112,332.09199 413.61465,333.72605 412.92917,333.94683 C 393.39751,320.20196 364.09209,304.94719 343.98943,292.59786 C 345.73595,290.9829 347.38398,290.8232 348.66094,289.5901 L 348.66088,289.5901 z"
       id="path6553" />
    <path
       style="fill:#c03"
       d="M 481.69648,258.22452 C 475.81977,255.94672 478.51419,255.76866 472.85745,253.12482 C 495.32586,240.97085 545.86738,248.78013 539.85422,272.87015 C 532.63361,301.79902 457.02993,258.55948 424.59837,234.02046 C 425.95107,233.87626 425.10049,232.21889 428.64986,230.99607 C 453.95428,253.85832 535.6824,296.89648 532.77456,268.295 C 531.03498,251.18544 489.2597,248.56666 481.69686,258.22446 L 481.69648,258.22452 z"
       id="path6551" />
    <path
       style="fill:#c03"
       d="M 282.55998,266.87025 C 279.01247,271.95197 230.75917,279.57687 232.78675,259.69976 C 234.73454,240.60884 319.77297,278.94893 326.31202,281.26916 C 326.58506,280.44631 328.84282,280.19047 330.64497,278.1907 C 319.73847,273.50224 225.52463,229.65437 226.52021,262.58521 C 226.85916,273.79689 260.53414,287.75733 292.38938,270.57572 C 289.1485,269.15686 290.15205,269.84613 282.55966,266.87018 L 282.55998,266.87025 z"
       id="path6549" />
    <path
       style="fill:#c03"
       d="M 85.243744,374.14467 C 113.01562,451.30896 322.00895,339.48742 365.775,310.62069 C 368.55506,312.72962 371.90239,313.64929 375.9206,317.07537 C 324.96774,352.64274 113.66171,465.99526 71.696336,383.32021 C 29.819617,300.82155 201.60285,265.31992 257.59046,302.29981 C 257.81884,302.96118 257.81884,303.40251 257.81884,303.84377 C 253.47825,303.84377 248.22406,300.75618 243.88418,298.99207 C 197.32869,291.89612 57.471287,296.98032 85.244323,374.14467 L 85.243744,374.14467 z"
       id="path6547" />
    <path
       style="fill:#c03"
       d="M 447.07217,281.49764 C 441.37322,281.48194 436.5456,283.40415 433.58149,288.07691 C 418.44779,311.9338 486.30683,322.09848 498.52935,321.52158 C 499.42593,319.94173 500.50367,319.71859 497.75843,318.23195 C 495.01313,316.74568 430.32622,309.18775 444.37402,291.00101 C 450.45091,283.45884 476.92443,295.6442 499.30027,312.74922 C 505.03718,317.13478 510.63154,321.57139 516.06722,326.09054 C 517.60552,325.56617 519.15629,325.13496 520.69254,324.62846 C 513.95613,318.92854 505.78439,312.00364 501.42023,308.36304 C 489.7996,298.66945 464.16895,281.54471 447.07217,281.49764 z"
       id="path6545" />
    <path
       style="fill:#c03"
       d="M 488.125,297.28125 C 486.51423,297.79987 484.89909,298.30308 483.28125,298.84375 C 506.29852,318.9842 527.63201,342.41759 558.25,350.0625 C 561.84894,350.07243 564.87814,348.85713 566.75,345.90625 C 576.30708,330.84041 533.46862,324.41693 525.75,324.78125 C 525.18382,325.77894 524.48511,325.93617 526.21875,326.875 C 527.95242,327.8136 568.80881,332.57742 559.9375,344.0625 C 541.97168,351.12001 501.57189,308.77052 488.125,297.28125 z"
       transform="translate(49.737291,41.757882)"
       id="path6543"
       sodipodi:nodetypes="cccscscc" />
    <path
       style="fill:#c03"
       d="M 318.94963,333.30686 C 319.17833,334.18908 313.95568,336.29838 313.95568,336.96011 C 297.9371,332.89698 194.73873,308.3004 205.60777,342.14143 C 212.40598,363.31026 250.50322,341.58959 266.64027,330.39976 C 271.34216,331.21659 273.11643,331.83771 277.66825,332.83546 C 264.91431,343.73418 210.1028,375.53164 197.79426,341.72237 C 183.90533,303.56946 302.97036,327.34039 318.94943,333.3068 L 318.94963,333.30686 z"
       id="path6541" />
    <path
       style="fill:#c03"
       d="M 466.73354,325.79453 C 437.03032,338.77837 357.5211,400.89595 329.49238,381.42519 C 318.51098,361.47625 364.21575,355.10605 379.64388,355.36602 C 381.10901,355.68958 383.00187,356.24476 384.42422,356.0894 C 384.41349,355.96958 384.4724,355.95583 384.38143,355.78453 C 365.1343,347.75142 309.68364,363.44162 325.41647,384.3336 C 336.90752,399.59313 375.13639,383.46347 401.26094,369.10128 C 426.60391,358.75234 457.78472,343.30018 479.46114,328.9703 C 473.44001,326.72647 469.6611,326.15014 466.73354,325.79453 z"
       id="path6539" />
    <path
       style="fill:#c03"
       d="M 469.57527,267.24533 C 442.63412,277.71408 413.39429,290.78377 389.13658,306.59563 C 386.10983,305.84131 383.96147,304.01605 377.81687,300.56913 C 401.60246,284.56866 435.60675,269.00523 457.60086,261.0009 C 459.07691,262.5325 462.02271,263.31864 466.98556,265.35763 C 467.75269,265.67311 468.74011,266.83626 469.57533,267.24539 L 469.57527,267.24533 z"
       id="path6537" />
    <path
       style="fill:#c03"
       d="M 375.94682,210.73686 C 349.65491,233.04608 328.56779,247.31476 304.31047,263.12651 C 301.28667,262.27078 300.40211,260.88827 293.29932,258.38893 C 317.08491,242.38808 338.06229,230.02418 366.02928,202.89155 C 372.80661,209.91717 370.26155,207.09031 375.94682,210.73686 L 375.94682,210.73686 z"
       id="path6535" />
    <path
       style="fill:#c03"
       d="M 380.70081,263.14506 C 349.00471,282.83023 316.77763,306.46485 292.51992,322.2766 C 289.74577,321.84346 286.61071,322.05333 278.0246,320.12282 C 301.81058,304.12198 340.23635,275.73216 370.00991,255.93531 C 376.09156,260.36763 375.22125,258.8622 380.70081,263.14506 L 380.70081,263.14506 z"
       id="path6533" />
    <path
       style="fill:#c03"
       d="M 344.2049,662.2902 C 280.94311,613.16377 310.291,552.74082 348.65349,524.96668 C 352.81111,528.61571 355.38881,530.49784 358.39359,533.76738 C 330.70651,553.64511 293.92441,591.60621 342.99283,651.05602 C 353.13143,660.34537 377.96302,663.90392 386.76652,645.15039 C 388.7271,640.97427 389.71053,639.33766 391.03574,642.11578 C 400.29048,669.44321 360.35018,671.26376 344.20497,662.28996 L 344.2049,662.2902 z"
       id="path6531" />
    <path
       style="fill:#c03"
       d="M 347.41205,608.68301 C 346.04252,604.45565 343.15016,602.06795 349.39357,603.94791 C 369.08956,609.87791 395.10111,619.05917 404.26469,605.35232 C 426.35105,572.32038 349.17251,517.28576 327.61725,502.18809 C 329.39775,500.7427 329.82047,500.53245 332.07901,499.13195 C 369.43686,520.14097 439.83293,573.37829 412.26265,612.00353 C 394.19419,637.31524 348.63813,612.46706 347.41205,608.68344 L 347.41205,608.68301 z"
       id="path6529" />
    <path
       style="fill:#c03"
       d="M 404.88894,500.45468 C 407.176,497.68154 406.58239,498.67643 409.01252,497.29783 C 429.57188,507.66264 475.27396,527.56021 498.82095,521.11292 C 511.24037,518.00548 534.89645,509.48294 508.37616,523.6592 C 485.94327,537.78294 425.3707,511.86171 404.88914,500.45462 L 404.88894,500.45468 z"
       id="path6527" />
    <path
       style="fill:#c03"
       d="M 230.41598,522.48085 C 215.04188,518.74419 218.40758,517.68746 230.18721,518.07043 C 296.11234,508.75739 312.26673,497.68141 347.63421,470.60279 C 350.83185,472.3669 354.25858,473.95748 356.95075,477.05604 C 326.63562,506.32093 273.04608,524.35133 230.41592,522.4808 L 230.41598,522.48085 z"
       id="path6525" />
    <path
       style="fill:#c03"
       d="M 386.98835,488.31174 C 376.17636,482.56154 340.4903,461.97115 323.92128,448.68974 C 324.37843,448.24879 327.36484,446.61473 328.05038,446.39426 C 347.58204,460.13919 370.38426,472.72704 390.48691,485.07674 C 390.93012,487.21923 388.26538,487.079 386.98842,488.31168 L 386.98835,488.31174 z"
       id="path6523" />
    <path
       style="fill:#c03"
       d="M 390.81371,433.92566 C 380.00172,428.17508 338.98534,405.14575 322.41632,391.86472 C 322.87347,391.42377 325.85994,389.78971 326.54542,389.56893 C 346.07708,403.3138 375.3825,418.56857 395.48516,430.9179 C 393.73864,432.53286 392.09061,432.69255 390.81365,433.92566 L 390.81371,433.92566 z"
       id="path6521" />
    <path
       style="fill:#c03"
       d="M 257.77811,465.29123 C 263.65482,467.56904 260.9604,467.7471 266.61714,470.39094 C 244.14873,482.54491 193.60721,474.73563 199.62037,450.64561 C 206.84098,421.71674 282.44466,464.95628 314.87622,489.4953 C 313.52352,489.6395 314.3741,491.29687 310.82473,492.51968 C 285.52031,469.65744 203.79219,426.61928 206.70003,455.22076 C 208.43961,472.33032 250.21489,474.9491 257.77773,465.2913 L 257.77811,465.29123 z"
       id="path6519" />
    <path
       style="fill:#c03"
       d="M 456.91461,456.64551 C 460.46212,451.56379 508.71542,443.93889 506.68785,463.816 C 504.74006,482.90692 419.70162,444.56683 413.16257,442.24659 C 412.88953,443.06945 410.63177,443.32529 408.82962,445.32506 C 419.73612,450.01352 513.94996,493.86139 512.95438,460.93054 C 512.61543,449.71887 478.94045,435.75843 447.08521,452.94004 C 450.32609,454.35889 449.32254,453.66963 456.91493,456.64557 L 456.91461,456.64551 z"
       id="path6517" />
    <path
       style="fill:#c03"
       d="M 654.23084,349.37109 C 626.45897,272.2068 417.46564,384.02834 373.69959,412.89507 C 370.91953,410.78614 367.5722,409.86647 363.55399,406.44039 C 414.50685,370.87302 625.81287,257.52049 667.77825,340.19555 C 709.65497,422.69421 537.87174,458.19584 481.88413,421.21595 C 481.65575,420.55458 481.65575,420.11325 481.65575,419.67199 C 485.99634,419.67199 491.25053,422.75958 495.59041,424.52369 C 542.1459,431.61964 682.0033,426.53544 654.23026,349.37109 L 654.23084,349.37109 z"
       id="path6515" />
    <path
       style="fill:#c03"
       d="M 79.34375,294.5 C 75.744822,294.49007 72.68436,295.70537 70.8125,298.65625 C 61.25544,313.72209 104.12513,320.14557 111.84375,319.78125 C 112.40995,318.78356 113.07739,318.65758 111.34375,317.71875 C 109.61007,316.78015 68.78494,311.98508 77.65625,300.5 C 93.755941,294.176 136.49575,334.18352 149.46875,343.625 C 151.29537,343.04874 153.03835,342.51179 154.875,341.90625 C 130.63893,324.87598 108.96353,301.58112 79.34375,294.5 z"
       transform="translate(49.737291,41.757882)"
       id="path6513"
       sodipodi:nodetypes="cscscccc" />
    <path
       style="fill:#c03"
       d="M 223.27182,396.86601 C 221.6703,397.42175 220.09422,398.00224 218.49527,398.5377 C 226.07327,404.2411 235.04823,411.1043 239.8941,414.69726 C 256.16098,426.75778 298.12443,450.41912 308.48493,430.67107 C 321.709,405.46496 253.85003,399.54452 241.80469,400.95233 C 241.03351,402.61454 239.93656,402.97326 242.75999,404.29567 C 245.58347,405.61772 310.15872,408.87201 297.59449,428.25638 C 292.13562,436.31225 264.9914,425.70315 241.61363,409.86796 C 235.31439,405.6011 229.26198,401.30602 223.27182,396.86601 z"
       id="path6511" />
    <path
       style="fill:#c03"
       d="M 420.52496,390.2089 C 420.29626,389.32668 425.51891,387.21738 425.51891,386.55564 C 441.53749,390.61878 544.73587,415.21536 533.86682,381.37433 C 527.06861,360.20549 488.97138,381.92616 472.83433,393.116 C 468.13243,392.29916 466.35816,391.67805 461.80634,390.68029 C 474.56028,379.78157 529.37179,347.98412 541.68033,381.79339 C 555.56926,419.9463 436.50423,396.17537 420.52516,390.20896 L 420.52496,390.2089 z"
       id="path6509" />
    <path
       style="fill:#c03"
       d="M 391.97273,331.18918 C 377.4555,332.57145 358.77821,340.60368 342.79059,348.87091 C 318.4414,359.14467 277.89014,376.91968 257.62695,390.31526 C 263.64808,392.55908 267.2358,393.16252 270.16336,393.51813 C 299.53418,384.50979 378.18871,316.64415 407.65847,340.16583 C 418.63987,360.1147 372.74397,366.51195 357.31591,366.25197 C 355.85078,365.92842 354.12765,365.19375 352.70537,365.34911 C 352.71603,365.46893 352.67845,365.63514 352.76948,365.80643 C 372.01661,373.83954 427.44594,357.99678 411.71305,337.10486 C 407.77154,331.87076 400.66939,330.36105 391.97273,331.18918 z"
       id="path6507" />
    <path
       style="fill:#c03"
       d="M 269.89932,456.27043 C 296.84047,445.80168 326.0803,432.73199 350.33801,416.92012 C 353.36476,417.67444 355.51312,419.4997 361.65772,422.94663 C 337.87213,438.9471 303.86784,454.51053 281.87373,462.51486 C 280.39768,460.98326 277.45188,460.19711 272.48903,458.15813 C 271.7219,457.84265 270.73448,456.6795 269.89926,456.27036 L 269.89932,456.27043 z"
       id="path6505" />
    <path
       style="fill:#c03"
       d="M 363.52777,512.7789 C 389.81968,490.46968 410.9068,476.201 435.16412,460.38925 C 438.18792,461.24498 439.07248,462.62749 446.17527,465.12683 C 422.38968,481.12767 401.4123,493.49158 373.44531,520.62421 C 366.66798,513.59859 369.21304,516.42545 363.52777,512.7789 L 363.52777,512.7789 z"
       id="path6503" />
    <path
       style="fill:#c03"
       d="M 358.77378,460.3707 C 390.46988,440.68553 422.69696,417.05091 446.95467,401.23916 C 449.72882,401.6723 452.86388,401.46243 461.44999,403.39294 C 437.66401,419.39378 399.23824,447.78359 369.46468,467.58045 C 363.38303,463.14813 364.25334,464.65356 358.77378,460.3707 L 358.77378,460.3707 z"
       id="path6094" />
  </g>
</svg>
